<?xml version="1.0" encoding="UTF-8" standalone="no"?>
<svg
   xmlns:dc="http://purl.org/dc/elements/1.1/"
   xmlns:cc="http://creativecommons.org/ns#"
   xmlns:rdf="http://www.w3.org/1999/02/22-rdf-syntax-ns#"
   xmlns:svg="http://www.w3.org/2000/svg"
   xmlns="http://www.w3.org/2000/svg"
   viewBox="0 0 1056 816"
   height="816"
   width="1056"
   xml:space="preserve"
   id="svg2"
   version="1.1"><metadata
     id="metadata8"><rdf:RDF><cc:Work
         rdf:about=""><dc:format>image/svg+xml</dc:format><dc:type
           rdf:resource="http://purl.org/dc/dcmitype/StillImage" /></cc:Work></rdf:RDF></metadata><defs
     id="defs6"><clipPath
       id="clipPath18"
       clipPathUnits="userSpaceOnUse"><path
         id="path16"
         d="M 0,612 H 792 V 0 H 0 Z" /></clipPath></defs><g
     transform="matrix(1.3333333,0,0,-1.3333333,0,816)"
     id="g10"><g
       id="g12"><g
         clip-path="url(#clipPath18)"
         id="g14"><g
           transform="translate(395.6133,107.0176)"
           id="g20"><path
             id="path22"
             style="fill:#fefefe;fill-opacity:1;fill-rule:nonzero;stroke:none"
             d="m 0,0 c -130.687,0 -261.374,0.012 -392.061,-0.072 -2.899,-0.002 -3.554,0.651 -3.552,3.545 0.084,126.543 0.084,253.086 0,379.63 -0.002,2.893 0.653,3.544 3.552,3.543 261.632,-0.077 523.263,-0.077 784.895,0 2.899,10e-4 3.555,-0.65 3.553,-3.543 -0.084,-126.544 -0.084,-253.087 0,-379.63 0.002,-2.894 -0.654,-3.547 -3.553,-3.545 C 261.89,0.012 130.944,0 0,0" /></g><g
           transform="translate(242.8877,305.2393)"
           id="g24"><path
             id="path26"
             style="fill:#f27125;fill-opacity:1;fill-rule:nonzero;stroke:none"
             d="m 0,0 c -6.187,-0.003 -12.374,0.06 -18.558,-0.035 -2.236,-0.034 -3.241,0.213 -2.583,2.948 3.526,14.66 6.888,29.36 10.242,44.061 3.243,14.211 6.113,28.515 9.714,42.634 2.239,8.778 3.438,17.82 6.512,26.375 4.094,11.4 14.076,18.671 26.18,18.872 11.596,0.193 23.197,0.014 34.795,0.107 2.364,0.018 3.255,-0.504 2.62,-3.055 -1.51,-6.073 -2.799,-12.199 -4.191,-18.302 C 61.404,99.005 58.107,84.398 54.724,69.811 52.094,58.476 49.335,47.17 46.666,35.845 45.465,30.749 44.466,25.603 43.158,20.536 40.126,8.789 28.722,0.025 16.625,0.004 11.083,-0.006 5.542,0.002 0,0" /></g><g
           transform="translate(317.7212,327.9795)"
           id="g28"><path
             id="path30"
             style="fill:#4eb849;fill-opacity:1;fill-rule:nonzero;stroke:none"
             d="m 0,0 c -6.05,0 -12.111,0.226 -18.145,-0.085 -3.595,-0.186 -3.958,1.129 -3.245,4.109 3.427,14.323 6.736,28.674 10.108,43.01 1.727,7.344 3.402,14.702 5.275,22.009 2.875,11.216 14.14,20.16 25.627,20.276 11.841,0.12 23.684,-0.004 35.526,0.06 2.396,0.014 3.343,-0.159 2.628,-3.175 C 52.725,64.908 47.922,43.554 43.075,22.21 40.199,9.547 30.025,0.78 16.986,0.131 11.337,-0.15 5.663,0.084 0,0.084 Z" /></g><g
           transform="translate(180.1016,328.0151)"
           id="g32"><path
             id="path34"
             style="fill:#0d51a1;fill-opacity:1;fill-rule:nonzero;stroke:none"
             d="m 0,0 c -6.567,0 -13.136,0.056 -19.702,-0.031 -2.268,-0.03 -3.236,-0.053 -2.498,2.979 4.566,18.743 8.879,37.549 13.133,56.366 1.588,7.028 2.799,14.031 7.685,19.887 5.42,6.496 12.382,9.833 20.486,10.148 11.829,0.458 23.691,0.029 35.536,0.177 3.22,0.04 3.426,-0.823 2.707,-3.768 C 53.564,70.26 50.05,54.697 46.493,39.145 44.956,32.424 43.528,25.66 41.823,19 39.731,10.827 34.164,5.094 26.245,1.849 22.793,0.434 19.203,-0.115 15.452,-0.02 10.305,0.111 5.151,0.013 0,0.013 Z" /></g><g
           transform="translate(587.0967,205.1084)"
           id="g36"><path
             id="path38"
             style="fill:#f27125;fill-opacity:1;fill-rule:nonzero;stroke:none"
             d="m 0,0 c -2.447,0 -4.904,-0.137 -7.338,0.043 -1.945,0.144 -5.046,-1.122 -5.602,0.791 -0.859,2.953 -0.371,6.353 -0.129,9.539 0.098,1.295 1.664,1.026 2.599,0.905 2.538,-0.327 3.093,1.014 3.088,3.152 -0.02,9.509 -0.035,19.02 0.053,28.53 0.019,2.018 -0.684,2.923 -2.676,2.619 -2.831,-0.433 -3.378,0.905 -3.357,3.479 0.063,7.874 -0.04,7.875 7.913,7.875 5.152,0 10.306,-0.099 15.455,0.036 2.401,0.062 3.274,-0.85 3.062,-3.156 -0.117,-1.274 -0.128,-2.577 -0.01,-3.851 0.27,-2.928 -0.051,-5.159 -3.945,-4.399 -1.637,0.32 -2.122,-0.597 -2.253,-2.209 -0.671,-8.211 -0.72,-8.208 7.515,-8.21 1.031,0 2.062,0.001 3.092,0.002 6.968,0.012 6.859,0.013 6.927,6.931 0.025,2.557 -0.524,3.966 -3.363,3.517 -2.363,-0.373 -2.691,0.908 -2.733,2.924 -0.179,8.416 -0.237,8.416 8.151,8.415 4.895,0 9.79,-0.051 14.684,0.012 2.57,0.034 3.871,-0.893 3.507,-3.642 -0.152,-1.138 -0.139,-2.323 -0.016,-3.465 0.306,-2.848 -0.156,-4.869 -3.774,-4.267 -1.968,0.327 -2.317,-0.849 -2.308,-2.534 0.054,-9.64 0.083,-19.279 0.008,-28.918 -0.018,-2.227 0.868,-3.049 2.981,-2.806 2.378,0.273 3.05,-0.847 3.111,-3.141 C 44.854,-0.001 44.935,0.001 36.75,0 31.598,-0.002 26.44,0.12 21.295,-0.061 18.846,-0.146 18.082,0.73 18.316,3.024 c 0.143,1.4 0.128,2.834 0.008,4.238 -0.227,2.671 0.159,4.678 3.602,4.054 0.124,-0.022 0.281,-0.04 0.382,0.016 3.752,2.078 1.617,5.607 1.909,8.461 0.153,1.491 0.941,4.18 -2.4,4.111 C 17.697,23.82 13.575,23.872 9.453,23.861 9.067,23.86 8.522,23.995 8.319,23.796 5.281,20.818 7.575,17.082 6.954,13.742 6.614,11.919 7.692,11.084 9.453,11.344 12.922,11.855 13.086,9.825 13.063,7.187 12.999,-0.001 13.076,-0.001 5.797,0 Z" /></g><g
           transform="translate(655.2461,238.2373)"
           id="g40"><path
             id="path42"
             style="fill:#f27125;fill-opacity:1;fill-rule:nonzero;stroke:none"
             d="m 0,0 c 0,-7.073 0.019,-13.469 -0.011,-19.864 -0.009,-1.874 1.196,-2.129 2.57,-1.927 3.266,0.481 3.809,-1.158 3.773,-3.994 -0.096,-7.35 0.016,-7.349 -7.259,-7.345 -5.408,0.003 -10.819,0.089 -16.224,-0.045 -2.183,-0.054 -3.084,0.636 -2.895,2.836 0.121,1.402 0.133,2.835 10e-4,4.235 -0.278,2.938 0.439,4.814 3.93,4.316 2.161,-0.309 2.556,0.996 2.55,2.807 -0.035,9.636 -0.086,19.275 0.04,28.91 0.032,2.512 -1.232,2.786 -3.108,2.523 -2.756,-0.387 -3.47,0.8 -3.449,3.459 0.061,7.893 0.019,7.235 8.011,8.068 8.893,0.928 14.697,-1.561 18.45,-10.015 2.727,-6.145 6.901,-11.646 10.353,-17.48 0.653,-1.102 1.142,-2.212 2.88,-2.728 0.477,5.869 -0.315,11.438 -0.396,17.009 -0.033,2.287 -1.904,1.748 -3.157,1.657 -2.276,-0.164 -2.795,0.842 -2.868,2.926 -0.294,8.452 -0.356,8.451 7.898,8.454 4.636,0.002 9.274,-0.1 13.906,0.038 2.724,0.081 4.183,-0.683 3.796,-3.686 -0.163,-1.263 -0.132,-2.577 -0.003,-3.849 0.265,-2.606 -0.275,-4.279 -3.456,-3.868 -2.774,0.357 -2.235,-1.751 -2.236,-3.337 -0.014,-12.85 -0.087,-25.7 0.049,-38.547 0.028,-2.764 -0.624,-3.49 -3.553,-3.834 C 23.48,-34 19.942,-31.908 17.083,-26.393 12.934,-18.385 7.766,-10.905 3.101,-3.159 2.43,-2.046 1.656,-1.148 0,0" /></g><g
           transform="translate(479.5088,205.1025)"
           id="g44"><path
             id="path46"
             style="fill:#f27125;fill-opacity:1;fill-rule:nonzero;stroke:none"
             d="m 0,0 c -7.47,0.002 -14.941,0.095 -22.408,-0.052 -2.419,-0.048 -3.268,0.734 -3.001,3.072 0.144,1.268 0.142,2.58 0.007,3.85 -0.327,3.056 0.292,5.077 4.048,4.472 1.695,-0.274 2.202,0.764 2.198,2.329 -0.026,9.895 -0.052,19.791 0.038,29.685 0.018,2.046 -0.981,2.497 -2.599,2.218 -3.305,-0.567 -3.77,1.094 -3.72,3.916 0.132,7.447 0.02,7.449 7.627,7.448 13.266,0 26.533,-0.084 39.796,0.064 2.915,0.032 3.816,-0.83 3.677,-3.707 -0.224,-4.616 -0.16,-9.253 -0.017,-13.875 0.063,-2.064 -0.644,-2.554 -2.633,-2.596 -6.892,-0.145 -7.187,-0.327 -9.312,6.078 -0.845,2.549 -2.011,2.764 -4.075,2.724 -3.862,-0.073 -7.73,-0.115 -11.59,0.003 -2.121,0.064 -3.135,-0.588 -2.907,-2.827 0.116,-1.144 0.069,-2.317 -0.026,-3.466 -0.188,-2.239 0.608,-3.178 3.031,-3.26 8.176,-0.276 7.995,-0.369 8.205,-8.325 0.088,-3.34 -1.046,-4.047 -4.151,-3.962 -7.072,0.193 -7.077,0.037 -7.05,-7.109 0.019,-5.352 0.019,-5.352 5.424,-5.353 1.546,0 3.092,10e-4 4.637,0 8.06,-10e-4 8.06,-10e-4 10.092,7.804 0.738,2.832 7.525,5.017 9.764,3.123 0.661,-0.56 0.542,-1.403 0.543,-2.162 C 25.606,14.18 25.512,8.267 25.646,2.358 25.698,0.069 24.55,-0.04 22.796,-0.027 15.198,0.03 7.599,-0.002 0,0" /></g><g
           transform="translate(292.4238,233.5977)"
           id="g48"><path
             id="path50"
             style="fill:#f27125;fill-opacity:1;fill-rule:nonzero;stroke:none"
             d="m 0,0 c 1.037,-14.865 -12.206,-29.244 -27.937,-29.366 -15.988,-0.123 -29.089,12.46 -29.057,29.962 0.029,15.911 12.777,28.559 28.288,28.859 C -13.003,29.759 0.724,16.008 0,0" /></g><g
           transform="translate(787.2002,226.0771)"
           id="g52"><path
             id="path54"
             style="fill:#f27125;fill-opacity:1;fill-rule:nonzero;stroke:none"
             d="m 0,0 c -2.422,-8.756 -7.457,-15.034 -15.123,-18.63 -16.319,-7.654 -35.348,-1.504 -42.486,15.69 -4.767,11.482 -0.319,27.139 10.479,34.35 8.172,5.457 16.967,7.343 26.568,3.888 1.39,-0.5 2.364,-1.444 3.583,-2.09 1.927,-1.02 3.5,-2.313 3.753,1.268 0.079,1.092 0.996,1.388 1.962,1.455 0.257,0.017 0.516,0.005 0.772,0.023 9.837,0.72 9.837,0.72 9.836,-9.061 0,-3.34 -0.098,-6.684 0.038,-10.019 0.081,-1.976 -0.502,-2.868 -2.584,-2.652 -1.274,0.132 -2.583,0.137 -3.858,0.009 -4.388,-0.44 -7.745,0.118 -10.455,4.649 -2.844,4.757 -11.404,6.016 -17.259,3.811 -5.144,-1.935 -9.282,-8.094 -9.284,-13.817 -0.004,-9.303 3.325,-14.487 10.825,-16.863 5.77,-1.828 12.962,0.374 16.355,5.387 1.324,1.956 2.671,2.75 4.989,2.649 C -8.051,-0.123 -4.2,0 0,0" /></g><g
           transform="translate(570.1602,250.9502)"
           id="g56"><path
             id="path58"
             style="fill:#f27125;fill-opacity:1;fill-rule:nonzero;stroke:none"
             d="m 0,0 c 0,-2.441 -0.185,-4.9 0.049,-7.319 0.273,-2.83 -0.916,-3.632 -3.517,-3.332 -1.398,0.161 -2.844,0.152 -4.244,0.002 -3.932,-0.425 -6.613,0.438 -9.107,4.251 -3.749,5.732 -11.446,6.374 -17.753,4.009 -6.491,-2.433 -10.418,-10.232 -9.186,-17.347 1.193,-6.887 4.901,-11.848 11.977,-13.387 6.482,-1.41 11.861,0.734 15.729,6.226 1.049,1.488 2.286,2.16 4.182,2.065 3.211,-0.16 6.444,-0.186 9.653,-0.002 2.352,0.135 2.812,-1.043 2.061,-2.726 -4.216,-9.445 -10.854,-16.175 -21.383,-18.28 -11.431,-2.284 -21.516,0.007 -29.708,8.771 -14.559,15.574 -7.445,41.495 12.969,47.7 7.963,2.421 15.39,1.973 22.412,-2.527 1.74,-1.115 2.772,-1.462 3.032,1.04 0.152,1.468 1.073,1.92 2.386,1.923 0.257,10e-4 0.514,0.005 0.772,0.019 C 0,11.594 0,11.594 0,0" /></g><g
           transform="translate(78.7153,262.041)"
           id="g60"><path
             id="path62"
             style="fill:#f27125;fill-opacity:1;fill-rule:nonzero;stroke:none"
             d="m 0,0 c 4.575,-0.423 10.079,0.43 15.612,-0.577 11.639,-2.119 15.463,-10.75 14.605,-19.841 -0.911,-9.664 -8.754,-15.283 -17.937,-15.48 -1.03,-0.022 -2.061,-0.005 -3.092,-0.006 -6.502,-0.005 -6.357,-0.009 -6.524,-6.532 -0.066,-2.584 0.671,-3.515 3.2,-3.207 1.289,0.158 2.306,-0.282 2.306,-1.853 -10e-4,-2.57 -0.016,-5.141 0.007,-7.711 0.014,-1.693 -1.109,-1.737 -2.35,-1.735 -7.085,0.014 -14.171,0.007 -21.256,0.015 -1.04,0.002 -2.259,-0.039 -2.3,1.393 -0.081,2.824 -0.11,5.658 0.048,8.476 0.091,1.611 1.553,1.545 2.682,1.41 2.444,-0.293 3.024,0.784 3.009,3.078 -0.064,9.509 0.016,19.02 0.129,28.529 0.023,1.895 -0.424,3.043 -2.55,2.701 -3.101,-0.498 -3.551,1.009 -3.445,3.741 0.329,8.466 -1.258,7.528 7.656,7.596 C -7.108,0.021 -4.016,0 0,0" /></g><g
           transform="translate(203.2383,262.041)"
           id="g64"><path
             id="path66"
             style="fill:#f27125;fill-opacity:1;fill-rule:nonzero;stroke:none"
             d="m 0,0 c 5.138,-0.239 11.162,0.378 17.177,-0.704 6.636,-1.193 12.43,-7.361 13.152,-14.555 0.928,-9.265 -3.071,-16.108 -10.162,-18.97 -4.657,-1.878 -9.304,-1.709 -14.022,-1.618 -2.606,0.051 -3.883,-0.647 -3.536,-3.428 0.142,-1.138 0.105,-2.315 0.003,-3.462 -0.186,-2.104 0.543,-3.205 2.81,-2.89 2.414,0.337 3.029,-0.843 3.093,-3.107 0.233,-8.202 0.307,-8.199 -7.921,-8.199 -4.89,-10e-4 -9.791,0.203 -14.665,-0.078 -3.183,-0.182 -4.114,1.009 -3.742,3.919 0.145,1.137 0.11,2.319 -0.011,3.461 -0.295,2.794 0.398,4.503 3.712,4.05 2.587,-0.354 2.472,1.552 2.473,3.265 10e-4,9.244 -0.063,18.489 0.048,27.731 0.029,2.416 -0.53,3.69 -3.201,3.26 -2.356,-0.38 -3.123,0.679 -3.052,3.029 0.284,9.421 -1.374,8.191 8.088,8.291 C -6.797,0.027 -3.837,0 0,0" /></g><g
           transform="translate(372.4736,205.1045)"
           id="g68"><path
             id="path70"
             style="fill:#f27125;fill-opacity:1;fill-rule:nonzero;stroke:none"
             d="m 0,0 c -3.476,0.002 -6.955,0.093 -10.426,-0.032 -2.007,-0.072 -2.829,0.622 -2.667,2.638 0.113,1.404 0.131,2.834 -10e-4,4.235 -0.28,2.965 0.137,5.161 3.975,4.512 0.905,-0.154 2.014,0.059 2.034,1.218 0.061,3.529 1.043,7.162 -1.195,10.465 -4.634,6.841 -9.201,13.728 -13.826,20.574 -0.63,0.933 -1.244,2.131 -2.638,1.953 -3.254,-0.418 -3.607,1.461 -3.369,3.967 0.097,1.019 0.144,2.073 -0.004,3.078 -0.5,3.405 0.91,4.53 4.301,4.392 5.654,-0.23 11.328,-0.157 16.988,-0.023 2.495,0.058 3.56,-0.755 3.335,-3.31 -0.157,-1.784 -0.07,-3.595 -0.017,-5.392 0.048,-1.586 -0.129,-2.816 -2.225,-2.678 -1.498,0.097 -2.236,-0.25 -1.119,-1.973 2.086,-3.22 3.96,-6.579 5.892,-9.897 0.866,-1.488 1.805,-1.334 2.599,-0.061 2.029,3.254 3.967,6.564 5.94,9.855 0.631,1.052 0.855,2.146 -0.827,2.051 -2.722,-0.153 -2.369,1.622 -2.398,3.3 -0.141,8.065 -0.149,8.066 7.745,8.065 4.377,-10e-4 8.755,-0.064 13.131,0.021 2.093,0.04 3.12,-0.653 2.995,-2.878 C 28.107,52.031 28.145,49.97 28.209,47.917 28.259,46.33 27.672,45.281 26.01,45.635 23.99,46.064 23.19,44.643 22.376,43.46 17.734,36.718 13.259,29.861 8.574,23.15 6.258,19.833 7.207,16.228 7.24,12.725 7.257,10.862 9.116,11.274 10.285,11.354 12.556,11.511 13.084,10.42 13.192,8.384 13.638,-0.014 13.69,-0.011 5.407,-0.002 3.604,0 1.802,-0.002 0,0" /></g><g
           transform="translate(32.5503,262.0439)"
           id="g72"><path
             id="path74"
             style="fill:#f27125;fill-opacity:1;fill-rule:nonzero;stroke:none"
             d="m 0,0 c 7.087,-0.001 14.176,-0.099 21.26,0.048 2.731,0.056 3.633,-0.932 3.547,-3.588 -0.152,-4.624 -0.114,-9.258 0,-13.884 0.048,-2.001 -0.615,-2.861 -2.652,-2.657 -1.021,0.102 -2.087,0.166 -3.086,-0.011 -3.209,-0.567 -4.783,0.867 -5.294,3.918 -0.609,3.643 -2.401,5.503 -6.506,4.924 -3.032,-0.428 -6.181,-0.227 -9.263,-0.044 -2.277,0.136 -2.998,-0.753 -2.76,-2.864 0.1,-0.889 0.124,-1.816 -0.012,-2.696 -0.518,-3.354 1.074,-4.069 4.159,-4.02 6.489,0.103 6.217,1.395 6.242,-6.059 0.003,-0.899 -0.093,-1.81 0.012,-2.697 0.32,-2.68 -0.771,-3.527 -3.483,-3.506 -6.925,0.057 -6.703,-0.08 -6.993,-7.193 -0.161,-3.94 0.515,-6.163 5.058,-5.317 2.066,0.386 2.544,-0.838 2.653,-2.716 0.497,-8.578 0.547,-8.576 -7.998,-8.575 -5.282,0 -10.572,0.151 -15.846,-0.062 -2.889,-0.117 -4.407,0.488 -3.894,3.716 0.199,1.255 0.144,2.578 0.009,3.849 -0.278,2.625 0.286,4.312 3.462,3.83 1.524,-0.23 1.936,0.631 1.928,2.083 -0.054,9.9 -0.091,19.8 0.004,29.699 0.022,2.193 -0.954,2.715 -2.793,2.478 -2.078,-0.266 -2.548,0.69 -2.622,2.638 -0.327,8.709 -0.39,8.707 8.246,8.707 5.541,0 11.081,0 16.622,-0.001" /></g><g
           transform="translate(136.5347,262.0381)"
           id="g76"><path
             id="path78"
             style="fill:#f27125;fill-opacity:1;fill-rule:nonzero;stroke:none"
             d="m 0,0 c 6.702,0 13.404,-0.067 20.104,0.035 2.461,0.038 3.487,-0.769 3.406,-3.336 -0.152,-4.753 -0.104,-9.515 -0.031,-14.272 0.028,-1.802 -0.593,-2.406 -2.446,-2.5 -5.887,-0.297 -5.829,-0.364 -7.809,5.194 -0.443,1.245 -0.521,2.856 -2.121,3.458 -2.64,0.993 -4.381,-0.19 -4.387,-3.089 -0.021,-9.259 0.063,-18.518 -0.039,-27.775 -0.027,-2.432 0.612,-3.671 3.245,-3.343 2.086,0.261 2.56,-1.009 2.711,-2.81 0.714,-8.495 0.746,-8.492 -7.681,-8.492 -5.155,0 -10.312,0.084 -15.464,-0.043 -2.151,-0.052 -3.104,0.58 -2.899,2.819 0.14,1.53 0.157,3.097 -0.002,4.624 -0.284,2.721 0.571,4.241 3.564,3.912 1.859,-0.205 2.474,0.679 2.465,2.475 -0.049,9.902 -0.023,19.803 -0.021,29.705 0,1.06 0.03,2.287 -1.498,2.048 -1.35,-0.211 -3.19,1.088 -3.977,-1.145 -0.597,-1.694 -1.394,-3.333 -1.818,-5.066 -0.444,-1.811 -1.328,-2.42 -3.217,-2.47 -6.241,-0.166 -6.238,-0.251 -6.234,6.127 0.002,3.471 0.106,6.948 -0.03,10.415 -0.106,2.717 1.074,3.605 3.688,3.565 C -13.662,-0.07 -6.831,0 0,0" /></g><g
           transform="translate(427.3145,262.04)"
           id="g80"><path
             id="path82"
             style="fill:#f27125;fill-opacity:1;fill-rule:nonzero;stroke:none"
             d="m 0,0 c 6.825,-0.002 13.65,-0.065 20.473,0.035 2.15,0.032 3.015,-0.661 2.968,-2.857 -0.102,-4.88 -0.117,-9.766 -0.002,-14.646 0.048,-2.058 -0.729,-2.559 -2.693,-2.605 -5.871,-0.138 -6.324,-0.121 -7.742,5.773 -0.659,2.737 -1.975,3.104 -4.304,2.987 -2.924,-0.147 -1.907,-2.262 -1.918,-3.675 -0.069,-8.993 0.03,-17.988 -0.057,-26.981 -0.024,-2.404 0.24,-4.118 3.269,-3.658 2.185,0.332 2.822,-0.684 2.886,-2.844 0.249,-8.473 0.325,-8.471 -7.956,-8.466 -5.152,0.003 -10.306,0.13 -15.45,-0.047 -2.433,-0.085 -3.251,0.717 -2.979,3.061 0.161,1.396 0.145,2.835 0.008,4.235 -0.274,2.797 0.408,4.56 3.721,4.099 1.924,-0.266 2.391,0.846 2.385,2.554 -0.035,9.764 -0.011,19.528 -0.007,29.293 0,1.174 0.117,2.516 -1.649,2.357 -1.396,-0.126 -3.208,0.888 -4.013,-1.187 -0.276,-0.712 -0.385,-1.486 -0.601,-2.222 -1.533,-5.252 -2.389,-5.699 -8.166,-5.285 -1.82,0.13 -2.096,0.916 -2.087,2.385 0.034,5.137 0.074,10.276 -0.002,15.413 -0.035,2.341 1.416,2.298 3.057,2.292 C -13.906,-0.013 -6.953,0.001 0,0" /></g><g
           transform="translate(318.0391,205.1035)"
           id="g84"><path
             id="path86"
             style="fill:#f27125;fill-opacity:1;fill-rule:nonzero;stroke:none"
             d="m 0,0 c -6.949,0.001 -13.9,0.085 -20.847,-0.047 -2.31,-0.044 -3.34,0.559 -3.084,2.997 0.174,1.652 0.086,3.338 0.023,5.005 -0.089,2.352 0.717,3.723 3.342,3.374 2.291,-0.305 2.804,0.901 2.788,2.957 -0.076,9.502 -0.098,19.005 -0.004,28.507 0.022,2.197 -0.7,3.12 -2.872,2.806 -2.524,-0.366 -3.292,0.67 -3.303,3.212 -0.035,8.125 -0.14,8.126 7.847,8.127 5.276,0 10.553,-0.059 15.828,0.019 1.949,0.028 2.876,-0.612 2.742,-2.652 -0.101,-1.534 -0.167,-3.1 0.02,-4.618 0.381,-3.073 -0.567,-4.651 -3.931,-4.107 -1.643,0.266 -2.279,-0.529 -2.271,-2.192 0.05,-9.757 0.072,-19.515 0.009,-29.272 -0.014,-2.219 0.919,-3.011 3.017,-2.807 0.765,0.074 1.543,0.004 2.315,0.017 3.081,0.051 6.504,-0.715 9.152,0.381 2.985,1.235 2.446,5.363 3.466,8.165 1.752,4.813 5.432,2.395 8.167,2.512 2.62,0.112 1.733,-2.612 1.755,-4.224 C 24.227,13.028 24.058,7.893 24.168,2.763 24.216,0.523 23.359,-0.072 21.233,-0.041 14.157,0.062 7.078,-0.002 0,0" /></g><g
           transform="translate(709.9971,205.1055)"
           id="g88"><path
             id="path90"
             style="fill:#f27125;fill-opacity:1;fill-rule:nonzero;stroke:none"
             d="m 0,0 c -3.221,-0.001 -6.441,-0.008 -9.663,0.003 -0.771,0.003 -1.898,-0.255 -2.254,0.145 -2.41,2.706 -0.581,6.023 -1.081,9.041 -0.285,1.718 0.931,2.333 2.408,2.099 3.288,-0.524 3.77,1.123 3.724,3.94 -0.148,9.125 -0.132,18.254 -0.012,27.38 0.031,2.317 -0.556,3.389 -2.986,2.998 -2.533,-0.408 -3.26,0.663 -3.243,3.21 0.055,8.121 -0.056,8.122 8.152,8.121 5.154,0 10.309,-0.057 15.46,0.026 1.944,0.031 2.903,-0.575 2.756,-2.637 C 13.16,52.92 13.164,51.494 13.268,50.087 13.475,47.279 13.406,44.874 9.42,45.544 7.806,45.815 7.604,44.581 7.604,43.3 7.598,33.401 7.589,23.503 7.533,13.604 7.524,11.972 8.161,11.135 9.801,11.342 12.951,11.741 13.323,10.023 13.3,7.417 13.232,0.007 13.323,0.006 5.798,0.001 3.865,0 1.933,0.001 0,0" /></g><g
           transform="translate(483.2305,368.3711)"
           id="g92"><path
             id="path94"
             style="fill:#047cc4;fill-opacity:1;fill-rule:nonzero;stroke:none"
             d="m 0,0 c 0,-3.213 0.102,-6.43 -0.022,-9.639 -0.207,-5.296 -4.545,-8.804 -10.549,-8.678 -5.37,0.112 -9.494,3.877 -9.555,8.891 -0.075,6.297 -0.019,12.596 -0.02,18.894 -10e-4,1.552 -0.259,3.123 2.216,3.079 2.594,-0.046 2.003,-1.82 2.013,-3.236 0.04,-5.912 -0.069,-11.826 0.047,-17.736 0.086,-4.392 3.311,-6.84 7.445,-5.852 2.739,0.654 4.063,2.347 4.025,5.238 -0.079,5.912 -0.095,11.826 0.017,17.736 0.029,1.512 -1.122,3.941 2.043,3.953 3.265,0.013 2.274,-2.443 2.332,-4.168 C 0.088,5.658 0.019,2.828 0.019,0 Z" /></g><g
           transform="translate(417.4746,357.2036)"
           id="g96"><path
             id="path98"
             style="fill:#047bc1;fill-opacity:1;fill-rule:nonzero;stroke:none"
             d="m 0,0 c 0,3.984 0.072,7.97 -0.03,11.952 -0.052,2.021 0.336,3.171 2.632,3.837 C 8.125,17.391 13.9,16.213 16.666,12.441 19.954,7.956 19.885,1.04 16.37,-3.416 14.146,-6.237 10.954,-7.44 7.529,-7.042 4.534,-6.693 3.916,-7.819 4.201,-10.367 c 0.113,-1.016 -0.024,-2.057 0.028,-3.082 0.074,-1.478 -0.211,-2.43 -2.06,-2.402 -1.733,0.026 -2.215,0.786 -2.198,2.356 0.049,4.498 0.017,8.996 0.017,13.495 z" /></g><g
           transform="translate(621.2812,341.8921)"
           id="g100"><path
             id="path102"
             style="fill:#057cc3;fill-opacity:1;fill-rule:nonzero;stroke:none"
             d="m 0,0 c 5.601,6.544 1.982,12.858 -0.425,19.219 -1.441,3.806 -2.944,7.589 -4.476,11.53 3.06,1.302 4.709,0.449 5.615,-2.688 1.404,-4.863 3.089,-9.644 5.008,-15.545 1.813,5.55 3.297,10.086 4.776,14.624 0.316,0.972 0.514,1.998 0.946,2.915 0.785,1.664 2.423,1.506 3.701,1.094 1.78,-0.575 0.585,-1.938 0.248,-2.858 C 12.281,19.811 8.961,11.403 6.018,2.866 4.975,-0.159 3.524,-1.246 0,0" /></g><g
           transform="translate(552.1055,350.0474)"
           id="g104"><path
             id="path106"
             style="fill:#077bc3;fill-opacity:1;fill-rule:nonzero;stroke:none"
             d="m 0,0 c -6.511,0.003 -10.411,3.184 -11.549,9.423 -1.057,5.801 1.836,11.589 6.833,13.665 C 1.394,25.627 8.859,20.161 8.078,13.692 7.796,11.362 5.841,11.399 4.237,11.429 0.992,11.489 -2.107,10.653 -5.264,10.188 -7.247,9.895 -7.7,8.984 -6.614,7.03 -4.638,3.474 -1.285,2.08 3.699,3.624 5.337,4.132 6.383,4.489 6.899,2.57 7.496,0.353 5.484,1.064 4.544,0.553 3.092,-0.236 1.525,0.089 0,0" /></g><g
           transform="translate(487.9863,361.356)"
           id="g108"><path
             id="path110"
             style="fill:#047bc2;fill-opacity:1;fill-rule:nonzero;stroke:none"
             d="m 0,0 c 0,2.055 0.282,4.158 -0.06,6.154 -0.665,3.874 1.342,5.488 4.675,5.907 2.404,0.303 4.932,0.533 7.285,0.12 4.202,-0.738 6.018,-3.264 6.07,-7.636 0.05,-4.237 -0.043,-8.476 0.048,-12.712 0.035,-1.657 -0.318,-2.827 -2.192,-2.78 -1.9,0.047 -2.124,1.311 -2.084,2.921 0.1,3.978 0.057,7.96 0.065,11.941 0.006,3.683 -1.395,4.64 -5.634,4.933 C 4.459,9.104 3.882,7.344 4.018,4.255 4.203,0.025 4.06,-4.218 4.074,-8.456 c 0.004,-1.236 -0.03,-2.288 -1.77,-2.263 -1.597,0.023 -2.351,0.563 -2.308,2.244 0.072,2.824 0.02,5.65 0.02,8.475 z" /></g><g
           transform="translate(406.9531,381.061)"
           id="g112"><path
             id="path114"
             style="fill:#047cc2;fill-opacity:1;fill-rule:nonzero;stroke:none"
             d="M 0,0 C 1.673,0 3.345,0.015 5.018,-0.004 6.516,-0.021 7.438,-0.593 7.407,-2.296 7.374,-4.083 6.149,-3.915 4.991,-3.928 4.219,-3.937 3.447,-3.93 2.675,-3.931 c -6.911,-0.004 -6.806,0 -6.588,-6.781 0.069,-2.156 0.865,-2.607 2.771,-2.473 1.918,0.135 3.857,0.04 5.785,-0.019 1.215,-0.037 1.887,-0.716 1.88,-1.963 -0.006,-1.29 -0.75,-1.818 -1.965,-1.83 -0.257,-0.003 -0.518,0.013 -0.771,-0.019 -2.495,-0.315 -5.906,1.235 -7.267,-0.742 -1.208,-1.755 -0.332,-4.938 -0.374,-7.49 -0.018,-1.155 -0.053,-2.31 -0.045,-3.465 0.011,-1.708 -1.163,-1.647 -2.372,-1.699 -1.38,-0.061 -1.767,0.613 -1.765,1.861 0.015,8.729 0.028,17.459 -0.029,26.188 -0.012,1.674 0.736,2.33 2.276,2.34 1.93,0.013 3.859,0.003 5.789,0.003 z" /></g><g
           transform="translate(518.0127,372.71)"
           id="g116"><path
             id="path118"
             style="fill:#067cc4;fill-opacity:1;fill-rule:nonzero;stroke:none"
             d="m 0,0 c 3.276,1.217 4.843,0.199 5.617,-2.819 1.013,-3.944 2.333,-7.809 3.556,-11.696 0.261,-0.83 0.495,-1.916 1.626,-1.842 1.024,0.066 0.772,1.152 0.992,1.829 1.307,4.014 2.737,7.995 3.858,12.06 0.818,2.966 2.469,3.577 5.563,2.428 -2.594,-6.945 -5.236,-13.823 -7.695,-20.765 -0.54,-1.525 -1.628,-1.448 -2.685,-1.588 -1.552,-0.204 -2.799,0.388 -3.37,1.946 C 4.964,-13.633 2.483,-6.812 0,0" /></g><g
           transform="translate(582.3984,350.0464)"
           id="g120"><path
             id="path122"
             style="fill:#087dc4;fill-opacity:1;fill-rule:nonzero;stroke:none"
             d="M 0,0 C -1.271,-0.206 -2.577,0.377 -3.947,0.686 -5.423,1.018 -5.914,1.65 -5.385,3.092 -4.9,4.413 -4.137,4.463 -3,3.876 -1.196,2.946 0.743,2.918 2.604,3.602 c 2.942,1.08 3.384,3.691 0.884,5.537 -1.318,0.973 -2.876,1.694 -4.421,2.276 -2.753,1.035 -4.616,2.566 -4.571,5.81 0.046,3.37 2.045,5.223 4.896,6.106 2.455,0.76 5.035,0.664 7.473,-0.562 0.943,-0.474 1.439,-0.947 1.136,-2.05 C 7.691,19.59 7.172,19.604 6.044,19.753 3.4,20.102 -0.285,21.477 -1.164,17.8 -1.966,14.445 1.719,13.989 4.12,12.97 7.896,11.367 10.116,8.222 9.47,5.586 8.563,1.883 5.337,-0.057 0,0" /></g><g
           transform="translate(447.8965,350.0483)"
           id="g124"><path
             id="path126"
             style="fill:#067cc6;fill-opacity:1;fill-rule:nonzero;stroke:none"
             d="m 0,0 c -4.047,0.04 -6.232,2.129 -6.433,6.132 -0.185,3.715 -0.019,7.446 -0.054,11.169 -0.012,1.21 0.309,2.45 -1.652,2.866 -2.077,0.439 -1.73,2.356 -0.273,2.747 2.325,0.625 1.965,2.162 1.853,3.556 -0.183,2.308 1.538,2.568 2.931,2.697 2.08,0.192 1.132,-1.69 1.082,-2.499 C -2.7,24.12 -2.017,22.74 0.836,23.057 1.944,23.179 2.39,22.358 2.35,21.299 2.31,20.217 1.485,20.02 0.729,20.14 -2.735,20.692 -2.545,18.46 -2.483,16.17 -2.41,13.475 -2.449,10.775 -2.469,8.078 -2.483,5.974 -2.081,4.162 0.496,3.993 1.976,3.896 2.541,3.204 2.373,1.77 2.161,-0.038 0.864,-0.036 0,0" /></g><g
           transform="translate(609.8896,379.2178)"
           id="g128"><path
             id="path130"
             style="fill:#087cc0;fill-opacity:1;fill-rule:nonzero;stroke:none"
             d="M 0,0 C 0.054,-1.098 0.179,-2.114 0.137,-3.124 0.063,-4.901 0.426,-6.185 2.617,-6.081 3.776,-6.026 5.115,-5.973 5.013,-7.729 4.926,-9.221 3.707,-9.15 2.708,-9.051 0.573,-8.838 0.065,-9.914 0.117,-11.793 c 0.088,-3.208 0.051,-6.42 0.033,-9.631 -0.011,-2.213 0.792,-3.855 3.214,-3.874 1.487,-0.013 1.698,-0.654 1.625,-1.833 -0.075,-1.19 -0.587,-2.004 -1.853,-1.995 -3.934,0.027 -6.73,1.007 -6.874,5.8 -0.116,3.849 -0.016,7.704 -0.04,11.556 -0.008,1.242 0.281,2.736 -1.748,2.699 -0.967,-0.018 -1.38,0.485 -1.36,1.414 0.02,0.865 0.352,1.539 1.289,1.586 1.865,0.092 2.023,1.356 1.811,2.698 C -4.266,-0.336 -2.326,-0.112 0,0" /></g><g
           transform="translate(563.6611,361.0737)"
           id="g132"><path
             id="path134"
             style="fill:#0b7fc4;fill-opacity:1;fill-rule:nonzero;stroke:none"
             d="m 0,0 c 0,2.18 0.005,4.36 -0.001,6.54 -0.012,4.409 5.896,7.935 10.04,6.044 0.978,-0.445 0.793,-1.143 0.799,-1.894 C 10.848,9.552 10.219,8.902 9.183,9.103 4.205,10.067 4.595,6.849 4.687,3.636 4.796,-0.208 4.613,-4.061 4.746,-7.903 c 0.069,-2.014 -0.837,-2.732 -2.647,-2.9 -2.202,-0.204 -2.127,1.243 -2.117,2.724 0.02,2.693 0.006,5.386 0.006,8.079 z" /></g><g
           transform="translate(514.9219,361.5576)"
           id="g136"><path
             id="path138"
             style="fill:#0d7fc4;fill-opacity:1;fill-rule:nonzero;stroke:none"
             d="m 0,0 c 0,-2.949 -0.085,-5.901 0.029,-8.845 0.079,-2.044 -1.239,-2.324 -2.701,-2.4 -1.575,-0.082 -1.817,0.996 -1.811,2.307 0.03,6.153 0.034,12.307 0.002,18.461 -0.007,1.351 0.272,2.222 1.886,2.146 1.409,-0.065 2.586,-0.25 2.576,-2.054 C -0.036,6.41 -0.023,3.205 -0.023,0 Z" /></g><g
           transform="translate(595.5449,362.2847)"
           id="g140"><path
             id="path142"
             style="fill:#027dc0;fill-opacity:1;fill-rule:nonzero;stroke:none"
             d="m 0,0 c 0,2.951 0.006,5.902 -0.003,8.853 -0.003,1.145 0.239,2.075 1.667,2.018 1.295,-0.052 2.807,-0.001 2.82,-1.815 0.047,-6.413 0.018,-12.827 -0.039,-19.24 -0.014,-1.623 -1.398,-1.698 -2.507,-1.66 -1.275,0.044 -2.041,0.698 -1.991,2.223 0.105,3.204 0.032,6.414 0.032,9.621 z" /></g><g
           transform="translate(373.8999,343.9043)"
           id="g144"><path
             id="path146"
             style="fill:#436da1;fill-opacity:1;fill-rule:nonzero;stroke:none"
             d="m 0,0 c 4.395,0.013 8.143,-3.502 8.28,-7.768 0.136,-4.175 -3.989,-8.25 -8.336,-8.234 -4.425,0.016 -8.144,3.807 -8.152,8.311 C -8.217,-3.346 -4.661,-0.014 0,0" /></g><g
           transform="translate(515.7051,380.1851)"
           id="g148"><path
             id="path150"
             style="fill:#1c83c3;fill-opacity:1;fill-rule:nonzero;stroke:none"
             d="m 0,0 c -0.236,-1.393 -1.238,-2.15 -2.578,-2.331 -1.487,-0.2 -2.525,0.561 -2.695,2.085 -0.162,1.434 0.253,2.471 2.052,2.537 C -1.516,2.353 -0.585,1.573 0,0" /></g><g
           transform="translate(600.1602,380.123)"
           id="g152"><path
             id="path154"
             style="fill:#1e83c3;fill-opacity:1;fill-rule:nonzero;stroke:none"
             d="m 0,0 c -0.17,-1.475 -1.157,-2.338 -2.528,-2.283 -1.48,0.06 -2.848,0.942 -2.676,2.596 0.135,1.289 1.116,2.16 2.719,2.051 C -0.927,2.259 -0.184,1.51 0,0" /></g><g
           transform="translate(268.7925,395.7056)"
           id="g156"><path
             id="path158"
             style="fill:#fefefe;fill-opacity:1;fill-rule:nonzero;stroke:none"
             d="m 0,0 c 4.896,0.003 9.795,0.101 14.689,-0.021 6.582,-0.163 9.789,-4.415 8.294,-10.748 -0.616,-2.614 -1.065,-5.273 -1.796,-7.853 -1.462,-5.151 -5.962,-8.564 -11.359,-8.62 -6.442,-0.068 -12.895,-0.219 -19.325,0.074 -3.116,0.142 -4.254,-1.043 -4.921,-3.821 -0.566,-2.36 -0.574,-4.811 -1.589,-7.114 -1.731,-3.93 -4.518,-6.3 -8.709,-7.322 -2.702,-0.659 -2.915,0.498 -2.463,2.577 2.059,9.47 4.125,18.938 6.16,28.412 0.853,3.971 1.716,7.943 2.42,11.942 0.335,1.906 1.259,2.55 3.136,2.52 C -10.31,-0.057 -5.154,-0.003 0,0" /></g><g
           transform="translate(339.0415,395.584)"
           id="g160"><path
             id="path162"
             style="fill:#fefefe;fill-opacity:1;fill-rule:nonzero;stroke:none"
             d="m 0,0 c 5.28,0 10.563,0.106 15.839,-0.031 5.057,-0.131 8.044,-3.135 8.011,-7.403 -0.017,-2.014 -0.701,-2.717 -2.686,-2.671 -4.119,0.096 -8.243,-0.042 -12.362,0.059 -1.886,0.046 -2.77,-0.614 -3.149,-2.5 -1.437,-7.151 -3.137,-14.25 -4.491,-21.414 -1.152,-6.096 -4.586,-10.208 -9.888,-11.436 -2.396,-0.555 -3.116,0.187 -2.596,2.533 2.132,9.62 4.08,19.283 6.398,28.857 0.797,3.291 -0.071,4.217 -3.237,3.97 -1.782,-0.139 -3.61,-0.004 -5.39,0.222 -3.509,0.443 -6.346,4.429 -5.809,7.848 0.305,1.948 1.636,1.994 3.133,1.989 C -10.818,0.003 -5.409,0.015 0,0.015 Z" /></g><g
           transform="translate(206.1587,395.6372)"
           id="g164"><path
             id="path166"
             style="fill:#fefefe;fill-opacity:1;fill-rule:nonzero;stroke:none"
             d="m 0,0 c 5.407,0 10.817,-0.107 16.219,0.043 2.918,0.081 2.979,-1.079 1.861,-3.158 -2.046,-3.806 -4.827,-6.7 -9.458,-6.797 -7.721,-0.159 -15.445,-0.148 -23.167,-0.222 -2.426,-0.023 -5.142,-3.81 -4.333,-6.05 0.501,-1.387 1.745,-0.807 2.654,-0.814 6.954,-0.05 13.911,-0.11 20.863,0.018 2.748,0.051 3.175,-0.886 1.986,-3.126 -2.354,-4.435 -5.987,-6.993 -11.042,-7.148 -4.76,-0.147 -9.53,-0.096 -14.293,0.002 -1.802,0.037 -2.867,-0.337 -3.167,-2.347 -0.338,-2.265 -0.922,-4.505 -1.546,-6.714 -1.229,-4.346 -3.786,-7.45 -8.342,-8.686 -3.597,-0.976 -4.101,-0.618 -3.296,3.071 1.466,6.716 3.065,13.403 4.58,20.109 0.81,3.585 1.669,7.163 2.314,10.779 1.184,6.638 5.985,10.881 12.73,11.026 2.57,0.055 5.142,0.06 7.713,0.071 C -5.149,0.069 -2.575,0.06 0,0.06 Z" /></g><g
           transform="translate(249.8911,233.877)"
           id="g168"><path
             id="path170"
             style="fill:#fefefe;fill-opacity:1;fill-rule:nonzero;stroke:none"
             d="M 0,0 C 0.185,11.185 7.947,17.712 18.153,15.266 25.18,13.582 29.836,4.96 28.292,-3.509 26.792,-11.744 20.175,-17.247 12.778,-16.413 5.013,-15.537 -0.147,-8.909 0,0" /></g><g
           transform="translate(81.3408,243.8223)"
           id="g172"><path
             id="path174"
             style="fill:#fefcfb;fill-opacity:1;fill-rule:nonzero;stroke:none"
             d="m 0,0 c 0,0.386 -0.105,0.809 0.017,1.149 0.77,2.14 -2.24,6.043 3.081,6.082 C 9.761,7.282 12.963,5.353 13.32,0.577 13.646,-3.781 11.351,-6.732 7.224,-7.261 0.097,-8.175 0.006,-8.083 0,0" /></g><g
           transform="translate(205.7402,244.1543)"
           id="g176"><path
             id="path178"
             style="fill:#fefcfb;fill-opacity:1;fill-rule:nonzero;stroke:none"
             d="m 0,0 c 0,0.255 -0.068,0.534 0.01,0.763 0.764,2.222 -2.255,6.27 3.346,6.164 6.748,-0.128 10.1,-2.145 10.395,-6.97 0.251,-4.094 -2.659,-7.27 -6.929,-7.562 C 0.005,-8.073 0.005,-8.073 0,0" /></g><g
           transform="translate(421.666,362.0659)"
           id="g180"><path
             id="path182"
             style="fill:#fbfcfd;fill-opacity:1;fill-rule:nonzero;stroke:none"
             d="M 0,0 C -0.002,1.152 -0.093,2.313 0.021,3.454 0.175,5.006 -0.825,7.292 1.213,7.852 3.471,8.472 6.02,8.632 8.112,6.747 11.459,3.73 11.417,-4.309 7.951,-7.239 6.032,-8.861 3.705,-9.285 1.438,-8.535 -0.891,-7.764 0.181,-5.499 0.024,-3.838 -0.095,-2.569 0.001,-1.28 0,0" /></g><g
           transform="translate(548.2627,363.0601)"
           id="g184"><path
             id="path186"
             style="fill:#f9fbfc;fill-opacity:1;fill-rule:nonzero;stroke:none"
             d="M 0,0 C -4.152,-0.052 -4.562,0.584 -3.028,3.962 -1.69,6.91 2.629,8.529 5.361,6.915 6.97,5.964 7.902,4.338 7.734,2.382 7.54,0.116 5.624,1.179 4.436,0.812 2.833,0.317 1.224,-0.084 0,0" /></g><g
           transform="translate(380.4126,336.3066)"
           id="g188"><path
             id="path190"
             style="fill:#f3f5f8;fill-opacity:1;fill-rule:nonzero;stroke:none"
             d="m 0,0 c 0.087,-3.696 -2.938,-6.971 -6.557,-7.095 -3.57,-0.123 -6.224,2.617 -6.46,6.673 -0.21,3.613 3.038,7.235 6.478,7.222 C -3.23,6.788 -0.083,3.515 0,0" /></g><g
           transform="translate(270.5059,385.5996)"
           id="g192"><path
             id="path194"
             style="fill:#ef7228;fill-opacity:1;fill-rule:nonzero;stroke:none"
             d="m 0,0 c 2.562,0 5.128,0.095 7.683,-0.044 1.098,-0.06 3.326,0.768 3.07,-0.929 -0.317,-2.105 0.446,-5.776 -2.732,-5.999 -6.499,-0.457 -13.052,-0.148 -19.583,-0.117 -1.131,0.005 -1.81,0.815 -1.233,1.76 1.077,1.768 -0.285,5.128 3.191,5.296 C -6.41,0.121 -3.202,0 0,0" /></g><g
           transform="translate(371.2236,331.5386)"
           id="g196"><path
             id="path198"
             style="fill:#4c709d;fill-opacity:1;fill-rule:nonzero;stroke:none"
             d="M 0,0 C -1.026,2.637 -0.465,5.054 -0.537,7.406 -0.566,8.35 0.098,8.85 0.979,8.625 2.636,8.2 4.644,9.446 5.981,7.674 6.56,6.908 6.63,5.826 5.83,5.233 3.885,3.794 4.705,2.165 5.513,0.678 4.824,0.187 4.687,0.6 4.44,0.817 3.409,1.722 3.371,3.98 1.803,3.78 0.031,3.553 1.815,1.143 0,0" /></g><g
           transform="translate(375.8271,337.9136)"
           id="g200"><path
             id="path202"
             style="fill:#f5f7fa;fill-opacity:1;fill-rule:nonzero;stroke:none"
             d="m 0,0 c -0.108,-1.32 -1.12,-1.099 -1.963,-1.102 -0.959,-0.003 -1.801,0.206 -1.666,1.458 0.139,1.292 1.175,1.062 2.01,1.131 C -0.564,1.575 0.097,1.194 0,0" /></g></g></g></g></svg>